<?xml version="1.0" encoding="UTF-8"?>
<!DOCTYPE svg PUBLIC "-//W3C//DTD SVG 1.1//EN" "http://www.w3.org/Graphics/SVG/1.1/DTD/svg11.dtd">
<svg xmlns="http://www.w3.org/2000/svg" version="1.1" width="512px" height="512px" style="shape-rendering:geometricPrecision; text-rendering:geometricPrecision; image-rendering:optimizeQuality; fill-rule:evenodd; clip-rule:evenodd" xmlns:xlink="http://www.w3.org/1999/xlink">
<g><path style="opacity:1" fill="#171717" d="M 233.5,-0.5 C 248.5,-0.5 263.5,-0.5 278.5,-0.5C 331.078,5.07736 377.912,24.4107 419,57.5C 419.667,58.1667 419.667,58.8333 419,59.5C 391.322,81.8471 363.656,104.18 336,126.5C 285.133,97.3547 233.633,96.188 181.5,123C 121.098,160.989 96.2645,215.489 107,286.5C 122.833,349 162,388.167 224.5,404C 295.511,414.736 350.011,389.902 388,329.5C 391.679,323.148 394.512,316.481 396.5,309.5C 351.167,309.5 305.833,309.5 260.5,309.5C 260.5,275.5 260.5,241.5 260.5,207.5C 342.833,207.5 425.167,207.5 507.5,207.5C 508.85,215.963 510.183,224.296 511.5,232.5C 511.5,247.833 511.5,263.167 511.5,278.5C 500.612,368.144 456.279,435.644 378.5,481C 347.03,497.695 313.697,507.861 278.5,511.5C 263.5,511.5 248.5,511.5 233.5,511.5C 133.194,499.017 61.694,447.017 19,355.5C 8.86392,330.621 2.36392,304.954 -0.5,278.5C -0.5,263.167 -0.5,247.833 -0.5,232.5C 9.30468,148.244 49.638,83.0769 120.5,37C 155.422,15.9704 193.088,3.4704 233.5,-0.5 Z"/></g>
</svg>
